<mxfile host="app.diagrams.net" agent="Mozilla/5.0 (Windows NT 10.0; Win64; x64) AppleWebKit/537.36 (KHTML, like Gecko) Chrome/139.0.0.0 Safari/537.36 Edg/139.0.0.0" version="28.1.2">
  <diagram id="vKWV3_qXcOezMcRI2yu2" name="Pagina-1">
    <mxGraphModel dx="1034" dy="578" grid="1" gridSize="10" guides="1" tooltips="1" connect="1" arrows="1" fold="1" page="1" pageScale="1" pageWidth="827" pageHeight="1169" math="0" shadow="0">
      <root>
        <mxCell id="0" />
        <mxCell id="1" parent="0" />
        <mxCell id="T4lfGwzRU9HhP7OFnwyu-1" value="l1: Diagnostic Information" style="rounded=0;whiteSpace=wrap;html=1;fillColor=#fad7ac;strokeColor=#b46504;" vertex="1" parent="1">
          <mxGeometry x="320" y="240" width="130" height="60" as="geometry" />
        </mxCell>
        <mxCell id="T4lfGwzRU9HhP7OFnwyu-2" value="" style="endArrow=classic;html=1;rounded=0;exitX=0;exitY=0;exitDx=85;exitDy=40;exitPerimeter=0;entryX=0.5;entryY=0;entryDx=0;entryDy=0;" edge="1" parent="1" source="T4lfGwzRU9HhP7OFnwyu-15" target="T4lfGwzRU9HhP7OFnwyu-1">
          <mxGeometry width="50" height="50" relative="1" as="geometry">
            <mxPoint x="390" y="320" as="sourcePoint" />
            <mxPoint x="440" y="270" as="targetPoint" />
          </mxGeometry>
        </mxCell>
        <mxCell id="T4lfGwzRU9HhP7OFnwyu-3" value="" style="endArrow=classic;html=1;rounded=0;exitX=0.5;exitY=1;exitDx=0;exitDy=0;entryX=0.5;entryY=0;entryDx=0;entryDy=0;" edge="1" parent="1" source="T4lfGwzRU9HhP7OFnwyu-1">
          <mxGeometry width="50" height="50" relative="1" as="geometry">
            <mxPoint x="390" y="320" as="sourcePoint" />
            <mxPoint x="385" y="340" as="targetPoint" />
          </mxGeometry>
        </mxCell>
        <mxCell id="T4lfGwzRU9HhP7OFnwyu-5" value="&amp;lt;&amp;lt;datastore&amp;gt;&amp;gt;&lt;div&gt;l2.1:&amp;nbsp;&lt;span style=&quot;background-color: transparent; color: light-dark(rgb(0, 0, 0), rgb(255, 255, 255));&quot;&gt;Diagnostic Information&lt;/span&gt;&lt;/div&gt;" style="rounded=0;whiteSpace=wrap;html=1;fillColor=#fad7ac;strokeColor=#b46504;" vertex="1" parent="1">
          <mxGeometry x="315" y="450" width="140" height="60" as="geometry" />
        </mxCell>
        <mxCell id="T4lfGwzRU9HhP7OFnwyu-6" value="" style="endArrow=classic;html=1;rounded=0;exitX=0.5;exitY=1;exitDx=0;exitDy=0;entryX=0.5;entryY=0;entryDx=0;entryDy=0;" edge="1" parent="1" source="T4lfGwzRU9HhP7OFnwyu-14" target="T4lfGwzRU9HhP7OFnwyu-5">
          <mxGeometry width="50" height="50" relative="1" as="geometry">
            <mxPoint x="390" y="520" as="sourcePoint" />
            <mxPoint x="440" y="470" as="targetPoint" />
          </mxGeometry>
        </mxCell>
        <mxCell id="T4lfGwzRU9HhP7OFnwyu-7" value="" style="endArrow=classic;html=1;rounded=0;exitX=0.5;exitY=1;exitDx=0;exitDy=0;entryX=0.5;entryY=0;entryDx=0;entryDy=0;" edge="1" parent="1" source="T4lfGwzRU9HhP7OFnwyu-5" target="T4lfGwzRU9HhP7OFnwyu-8">
          <mxGeometry width="50" height="50" relative="1" as="geometry">
            <mxPoint x="390" y="520" as="sourcePoint" />
            <mxPoint x="240" y="710" as="targetPoint" />
          </mxGeometry>
        </mxCell>
        <mxCell id="T4lfGwzRU9HhP7OFnwyu-8" value="" style="shape=sumEllipse;perimeter=ellipsePerimeter;whiteSpace=wrap;html=1;backgroundOutline=1;fillColor=#fad9d5;strokeColor=#ae4132;" vertex="1" parent="1">
          <mxGeometry x="370" y="555" width="30" height="30" as="geometry" />
        </mxCell>
        <mxCell id="T4lfGwzRU9HhP7OFnwyu-9" value="" style="endArrow=none;dashed=1;html=1;dashPattern=1 3;strokeWidth=2;rounded=0;entryX=1;entryY=0.5;entryDx=0;entryDy=0;entryPerimeter=0;fillColor=#b0e3e6;strokeColor=#0e8088;" edge="1" parent="1" target="T4lfGwzRU9HhP7OFnwyu-15">
          <mxGeometry width="50" height="50" relative="1" as="geometry">
            <mxPoint x="550" y="480" as="sourcePoint" />
            <mxPoint x="440" y="170" as="targetPoint" />
            <Array as="points">
              <mxPoint x="550" y="340" />
              <mxPoint x="550" y="170" />
            </Array>
          </mxGeometry>
        </mxCell>
        <mxCell id="T4lfGwzRU9HhP7OFnwyu-10" value="" style="endArrow=none;dashed=1;html=1;dashPattern=1 3;strokeWidth=2;rounded=0;exitX=1;exitY=0.5;exitDx=0;exitDy=0;fillColor=#b0e3e6;strokeColor=#0e8088;" edge="1" parent="1" source="T4lfGwzRU9HhP7OFnwyu-5">
          <mxGeometry width="50" height="50" relative="1" as="geometry">
            <mxPoint x="640" y="640" as="sourcePoint" />
            <mxPoint x="550" y="480" as="targetPoint" />
            <Array as="points">
              <mxPoint x="550" y="480" />
            </Array>
          </mxGeometry>
        </mxCell>
        <mxCell id="T4lfGwzRU9HhP7OFnwyu-11" value="&amp;lt;&amp;lt;frequency&amp;gt;&amp;gt;&lt;br&gt;6000 / day" style="shape=note;whiteSpace=wrap;html=1;backgroundOutline=1;darkOpacity=0.05;size=15;fillColor=#d5e8d4;strokeColor=#82b366;" vertex="1" parent="1">
          <mxGeometry x="302.5" y="60" width="165" height="50" as="geometry" />
        </mxCell>
        <mxCell id="T4lfGwzRU9HhP7OFnwyu-12" value="" style="endArrow=none;dashed=1;html=1;dashPattern=1 3;strokeWidth=2;rounded=0;entryX=0.5;entryY=1;entryDx=0;entryDy=0;entryPerimeter=0;exitX=0;exitY=0;exitDx=85;exitDy=0;exitPerimeter=0;fillColor=#d5e8d4;strokeColor=#82b366;" edge="1" parent="1" source="T4lfGwzRU9HhP7OFnwyu-15" target="T4lfGwzRU9HhP7OFnwyu-11">
          <mxGeometry width="50" height="50" relative="1" as="geometry">
            <mxPoint x="390" y="320" as="sourcePoint" />
            <mxPoint x="440" y="270" as="targetPoint" />
            <Array as="points">
              <mxPoint x="385" y="110" />
            </Array>
          </mxGeometry>
        </mxCell>
        <mxCell id="T4lfGwzRU9HhP7OFnwyu-13" value="&amp;lt;&amp;lt;complexity&amp;gt;&amp;gt;&lt;br&gt;low" style="shape=note;whiteSpace=wrap;html=1;backgroundOutline=1;darkOpacity=0.05;size=15;fillColor=#b1ddf0;strokeColor=#10739e;" vertex="1" parent="1">
          <mxGeometry x="150" y="280" width="120" height="50" as="geometry" />
        </mxCell>
        <mxCell id="T4lfGwzRU9HhP7OFnwyu-14" value="A2 - Store Diagnostic Information" style="rounded=1;whiteSpace=wrap;html=1;fillColor=#fad9d5;strokeColor=#ae4132;" vertex="1" parent="1">
          <mxGeometry x="315" y="340" width="140" height="60" as="geometry" />
        </mxCell>
        <mxCell id="T4lfGwzRU9HhP7OFnwyu-15" value="A1 - Send Diagnostic Information" style="html=1;shape=mxgraph.infographic.ribbonSimple;notch1=20;notch2=0;align=center;verticalAlign=middle;fontSize=14;fontStyle=0;fillColor=#fad9d5;flipH=0;spacingRight=0;spacingLeft=14;whiteSpace=wrap;strokeColor=#ae4132;" vertex="1" parent="1">
          <mxGeometry x="299.38" y="150" width="180" height="40" as="geometry" />
        </mxCell>
        <mxCell id="T4lfGwzRU9HhP7OFnwyu-17" value="" style="strokeWidth=2;html=1;shape=mxgraph.flowchart.start_2;whiteSpace=wrap;fillColor=#f8cecc;strokeColor=#b85450;" vertex="1" parent="1">
          <mxGeometry x="250" y="155" width="30.62" height="30" as="geometry" />
        </mxCell>
        <mxCell id="T4lfGwzRU9HhP7OFnwyu-18" value="" style="endArrow=classic;html=1;rounded=0;exitX=1;exitY=0.5;exitDx=0;exitDy=0;exitPerimeter=0;entryX=0;entryY=0;entryDx=20;entryDy=20;entryPerimeter=0;" edge="1" parent="1" source="T4lfGwzRU9HhP7OFnwyu-17">
          <mxGeometry width="50" height="50" relative="1" as="geometry">
            <mxPoint x="235.62" y="160" as="sourcePoint" />
            <mxPoint x="320" y="170" as="targetPoint" />
          </mxGeometry>
        </mxCell>
        <mxCell id="T4lfGwzRU9HhP7OFnwyu-19" value="&amp;lt;&amp;lt;delay&amp;gt;&amp;gt;&lt;br&gt;30 minutes" style="shape=note;whiteSpace=wrap;html=1;backgroundOutline=1;darkOpacity=0.05;size=15;fillColor=#b0e3e6;strokeColor=#0e8088;" vertex="1" parent="1">
          <mxGeometry x="510" y="270" width="120" height="50" as="geometry" />
        </mxCell>
      </root>
    </mxGraphModel>
  </diagram>
</mxfile>
